<?xml version="1.0" encoding="UTF-8" standalone="no"?>
<!-- Created with Inkscape (http://www.inkscape.org/) -->

<svg
   width="3in"
   height="2.9999998in"
   viewBox="0 0 76.199998 76.199994"
   version="1.1"
   id="svg1"
   xml:space="preserve"
   xmlns:xlink="http://www.w3.org/1999/xlink"
   xmlns="http://www.w3.org/2000/svg"
   xmlns:svg="http://www.w3.org/2000/svg"><defs
     id="defs1"><linearGradient
       id="swatch64"><stop
         style="stop-color:#58f0a2;stop-opacity:1;"
         offset="0"
         id="stop64" /></linearGradient><linearGradient
       id="swatch62"><stop
         style="stop-color:#32a578;stop-opacity:1;"
         offset="0"
         id="stop62" /></linearGradient><linearGradient
       id="swatch56"><stop
         style="stop-color:#002d2e;stop-opacity:1;"
         offset="0"
         id="stop56" /></linearGradient><clipPath
       clipPathUnits="userSpaceOnUse"
       id="clipPath57"><use
         x="0"
         y="0"
         xlink:href="#leaf_fg"
         id="use57"
         style="display:inline" /></clipPath><clipPath
       clipPathUnits="userSpaceOnUse"
       id="clipPath60"><use
         x="0"
         y="0"
         xlink:href="#layer7"
         id="use61"
         style="display:inline"
         mask="none"
         clip-path="url(#clipPath57)" /></clipPath><linearGradient
       xlink:href="#swatch56"
       id="linearGradient61"
       x1="2.5413508"
       y1="38.166405"
       x2="74.749016"
       y2="38.166405"
       gradientUnits="userSpaceOnUse" /><linearGradient
       xlink:href="#swatch62"
       id="linearGradient62"
       x1="8.924798"
       y1="38.246849"
       x2="67.392906"
       y2="38.246849"
       gradientUnits="userSpaceOnUse" /><linearGradient
       xlink:href="#swatch62"
       id="linearGradient63"
       x1="12.607917"
       y1="38.40192"
       x2="61.463192"
       y2="38.40192"
       gradientUnits="userSpaceOnUse" /><linearGradient
       xlink:href="#swatch64"
       id="linearGradient64"
       x1="6.0755053"
       y1="36.796085"
       x2="69.628212"
       y2="36.796085"
       gradientUnits="userSpaceOnUse" /><linearGradient
       xlink:href="#swatch62"
       id="linearGradient2"
       gradientUnits="userSpaceOnUse"
       x1="8.924798"
       y1="38.246849"
       x2="67.392906"
       y2="38.246849" /><linearGradient
       xlink:href="#swatch62"
       id="linearGradient3"
       gradientUnits="userSpaceOnUse"
       x1="8.924798"
       y1="38.246849"
       x2="67.392906"
       y2="38.246849" /><linearGradient
       xlink:href="#swatch64"
       id="linearGradient4"
       gradientUnits="userSpaceOnUse"
       x1="6.0755053"
       y1="36.796085"
       x2="69.628212"
       y2="36.796085" /><linearGradient
       xlink:href="#swatch64"
       id="linearGradient5"
       gradientUnits="userSpaceOnUse"
       x1="6.0755053"
       y1="36.796085"
       x2="69.628212"
       y2="36.796085" /><linearGradient
       xlink:href="#swatch64"
       id="linearGradient6"
       gradientUnits="userSpaceOnUse"
       x1="6.0755053"
       y1="36.796085"
       x2="69.628212"
       y2="36.796085" /></defs><g
     id="layer6"
     style="display:inline"><path
       d="M 73.76914,3.3703369 C 58.73566,3.6294598 49.880889,5.1531579 38.046773,15.603182 28.428992,5.7517247 16.141939,3.721459 2.8628743,3.5310506 1.3701559,23.572582 5.2024343,33.661143 11.715064,38.906152 4.5931173,45.073146 3.8385126,56.79415 4.0936402,72.92753 l 7.7309608,0.03494 C 36.654874,72.041451 43.718525,59.389479 45.408597,49.465714 77.493595,46.513911 75.891628,14.689323 73.76914,3.3703369 Z"
       style="display:inline;fill:url(#linearGradient61);fill-opacity:1"
       id="path1738" /></g><g
     id="layer8"
     style="display:none"><g
       id="layer4"
       style="display:inline"><path
         style="fill-opacity:1"
         d="m 41.355233,33.406874 4.388051,-4.734092 -0.711323,-8.021992 c 0,0 -0.02617,-0.762415 0.224963,-0.988548 0.623277,-0.561233 1.789337,-0.747014 2.498347,-0.29895 0.288546,0.182348 0.375366,0.767442 0.326519,0.970551 -0.04885,0.203108 0.500597,5.450448 0.500597,5.450448 l 9.120689,-9.374407 c 0,0 0.636909,-0.487137 0.991117,-0.425501 0.991747,0.172575 1.990263,1.076225 2.209475,2.058716 0.06013,0.269483 -0.30852,0.768727 -0.30852,0.768727 l -6.256463,6.237536 6.027941,0.603252 c 0,0 0.818603,0.130814 0.972917,0.453659 0.32304,0.675842 -0.03254,1.630467 -0.540115,2.181361 -0.22454,0.243701 -0.94223,0.316984 -0.94223,0.316984 l -7.853776,-0.874412 -4.073081,4.114168 8.736035,3.342113 c 0,0 0.373111,0.317235 0.35737,0.529626 -0.07532,1.016304 -1.105944,1.909772 -2.064947,2.254532 -0.53827,0.193507 -1.843404,-0.250671 -1.699429,-0.23782 0.143976,0.01286 -7.832229,-3.386039 -7.832229,-3.386039 l -2.291515,2.31628 z"
         id="path16" /><path
         style="fill-opacity:1;fill-rule:evenodd"
         d="m 24.081217,46.026138 -8.340719,0.223842 c 0,0 -0.612443,0.152825 -0.769868,0.394394 -0.42874,0.657901 -0.547673,1.683204 -0.135954,2.351889 0.149452,0.242729 0.784525,0.340294 0.784525,0.340294 l 6.082932,0.190572 -7.364681,8.876961 c 0,0 -0.174074,0.639424 -0.03996,0.9129 0.441613,0.900506 1.462023,1.612393 2.457288,1.736414 0.248975,0.03102 0.702517,-0.270239 0.702517,-0.270239 L 35.656911,40.038493 38.625415,36.483461 16.071004,15.973843 c 0,0 -0.471434,-0.259089 -0.719754,-0.222016 -1.086543,0.162219 -2.351302,0.817069 -2.728255,1.848959 -0.08134,0.222667 0.192916,0.68451 0.192916,0.68451 l 7.667196,7.367217 -6.521723,0.296977 c 0,0 -0.468178,0.208243 -0.568889,0.421735 -0.389658,0.826019 -0.36977,1.978881 0.140532,2.736333 0.160972,0.238934 0.783303,0.365311 0.783303,0.365311 l 10.13362,-0.149516 7.926598,7.911658 c -2.667797,3.018527 -5.514021,5.877282 -8.295364,8.791127 z"
         id="path17" /></g><g
       id="layer5"
       style="display:inline;opacity:1;fill:url(#linearGradient62);fill-opacity:1"><path
         d="m 9.4030435,10.491866 c 0,0 -0.5895247,3.720419 -0.4595207,7.34987 0.359034,10.02351 3.7217522,15.557123 11.7213652,20.493908 -5.79793,3.960945 -8.965734,11.905119 -9.13691,12.342399 -1.474514,3.804929 -1.230774,7.967795 -1.199916,11.969812 l -0.0098,3.397725 4.325019,-0.02763 C 22.104168,65.97029 28.08516,62.735554 33.344763,58.261559 38.46039,53.910034 38.409005,44.7633 36.882332,36.326344 35.740473,30.016009 34.871492,22.883408 31.087772,18.232388 27.823308,14.219648 19.23099,10.364492 12.672117,10.449498 c -1.089691,0.01412 -3.2690735,0.04237 -3.2690735,0.04237 z"
         style="display:inline;opacity:1;fill:url(#linearGradient2);fill-opacity:1"
         id="path1741" /><path
         d="m 66.779902,11.133687 c -0.319419,-0.305243 -0.796877,-0.435322 -1.542541,-0.418062 -0.967768,0.0224 -2.36923,0.274145 -4.398698,0.645438 -14.223916,2.602302 -20.477828,8.798538 -18.028874,17.862476 l 0.406177,1.502234 1.168404,5.676139 1.210262,5.881295 3.194121,-0.289905 c 1.75678,-0.1593 4.26597,-0.83628 5.576403,-1.504818 8.370184,-4.270151 13.015089,-13.333929 13.027629,-25.422737 0.0022,-2.169234 -0.02027,-3.365745 -0.612883,-3.93206 z"
         style="display:inline;fill:url(#linearGradient3);fill-opacity:1"
         id="path1742" /></g><g
       id="layer7"
       mask="none"
       style="display:inline;fill:url(#linearGradient64);fill-opacity:1"><path
         style="fill:url(#linearGradient4);fill-opacity:1;fill-rule:evenodd;stroke:none;stroke-width:0.508;stroke-linecap:square;stroke-dasharray:none;stroke-opacity:1"
         d="M 41.334843,35.532493 69.628212,7.1286028 41.555886,15.472936 37.963953,29.067016 v 0 z"
         id="path46" /><path
         style="display:inline;fill:url(#linearGradient5);fill-opacity:1;fill-rule:evenodd;stroke:none;stroke-width:0.508;stroke-linecap:square;stroke-dasharray:none;stroke-opacity:1"
         d="M 10.081367,66.583911 35.089409,37.199461 20.566103,38.320379 C 10.891811,44.342897 6.5056404,53.273883 10.081367,66.583911 Z"
         id="path34"
         mask="none" /><path
         style="fill:url(#linearGradient6);fill-opacity:1;fill-rule:evenodd;stroke:none;stroke-width:0.508;stroke-linecap:square;stroke-dasharray:none;stroke-opacity:1"
         d="M 6.0755052,7.0082631 8.5704983,28.379365 25.885184,27.094243 28.940248,11.71448 Z"
         id="path45" /></g></g><use
     x="0"
     y="0"
     xlink:href="#layer5"
     id="leaf_fg"
     style="display:inline" /><use
     x="0"
     y="0"
     xlink:href="#layer7"
     id="leaf_highlight"
     style="display:inline"
     mask="none"
     clip-path="url(#clipPath57)" /><use
     x="0"
     y="0"
     xlink:href="#layer4"
     id="veins"
     style="display:inline;fill:url(#swatch56);fill-opacity:1" /><use
     x="0"
     y="0"
     xlink:href="#layer4"
     id="veins_highlight"
     style="display:inline;fill:url(#linearGradient63);fill-opacity:1;stroke:none;stroke-opacity:1"
     mask="none"
     clip-path="url(#clipPath60)" /></svg>
