<?xml version="1.0" encoding="UTF-8" standalone="no"?>
<!-- Created with Inkscape (http://www.inkscape.org/) -->

<svg
   width="3in"
   height="2.9999998in"
   viewBox="0 0 76.199998 76.199994"
   version="1.1"
   id="svg1"
   xml:space="preserve"
   xmlns:xlink="http://www.w3.org/1999/xlink"
   xmlns="http://www.w3.org/2000/svg"
   xmlns:svg="http://www.w3.org/2000/svg"><defs
     id="defs1"><linearGradient
       id="swatch64"><stop
         style="stop-color:#58f0a2;stop-opacity:1;"
         offset="0"
         id="stop64" /></linearGradient><linearGradient
       id="swatch62"><stop
         style="stop-color:#32a578;stop-opacity:1;"
         offset="0"
         id="stop62" /></linearGradient><linearGradient
       id="swatch56"><stop
         style="stop-color:#002d2e;stop-opacity:1;"
         offset="0"
         id="stop56" /></linearGradient><clipPath
       clipPathUnits="userSpaceOnUse"
       id="clipPath57"><use
         x="0"
         y="0"
         xlink:href="#leaf_fg"
         id="use57"
         style="display:inline" /></clipPath><clipPath
       clipPathUnits="userSpaceOnUse"
       id="clipPath60"><use
         x="0"
         y="0"
         xlink:href="#layer7"
         id="use61"
         style="display:inline"
         mask="none"
         clip-path="url(#clipPath57)" /></clipPath><linearGradient
       xlink:href="#swatch56"
       id="linearGradient61"
       x1="2.5413508"
       y1="38.166405"
       x2="74.749016"
       y2="38.166405"
       gradientUnits="userSpaceOnUse" /><linearGradient
       xlink:href="#swatch62"
       id="linearGradient62"
       x1="8.924798"
       y1="38.246849"
       x2="67.392906"
       y2="38.246849"
       gradientUnits="userSpaceOnUse" /><linearGradient
       xlink:href="#swatch62"
       id="linearGradient63"
       x1="12.607917"
       y1="38.40192"
       x2="61.463192"
       y2="38.40192"
       gradientUnits="userSpaceOnUse" /><linearGradient
       xlink:href="#swatch64"
       id="linearGradient64"
       x1="6.0755053"
       y1="36.796085"
       x2="69.628212"
       y2="36.796085"
       gradientUnits="userSpaceOnUse" /><linearGradient
       xlink:href="#swatch62"
       id="linearGradient2"
       gradientUnits="userSpaceOnUse"
       x1="8.924798"
       y1="38.246849"
       x2="67.392906"
       y2="38.246849" /><linearGradient
       xlink:href="#swatch62"
       id="linearGradient3"
       gradientUnits="userSpaceOnUse"
       x1="8.924798"
       y1="38.246849"
       x2="67.392906"
       y2="38.246849" /><linearGradient
       xlink:href="#swatch64"
       id="linearGradient4"
       gradientUnits="userSpaceOnUse"
       x1="6.0755053"
       y1="36.796085"
       x2="69.628212"
       y2="36.796085" /><linearGradient
       xlink:href="#swatch64"
       id="linearGradient5"
       gradientUnits="userSpaceOnUse"
       x1="6.0755053"
       y1="36.796085"
       x2="69.628212"
       y2="36.796085" /><linearGradient
       xlink:href="#swatch64"
       id="linearGradient6"
       gradientUnits="userSpaceOnUse"
       x1="6.0755053"
       y1="36.796085"
       x2="69.628212"
       y2="36.796085" /></defs><g
     id="layer6"
     style="display:inline"><path
       d="M 73.76914,3.3703369 C 58.73566,3.6294598 49.880889,5.1531579 38.046773,15.603182 28.428992,5.7517247 16.141939,3.721459 2.8628743,3.5310506 1.3701559,23.572582 5.2024343,33.661143 11.715064,38.906152 4.5931173,45.073146 3.8385126,56.79415 4.0936402,72.92753 l 7.7309608,0.03494 C 36.654874,72.041451 43.718525,59.389479 45.408597,49.465714 77.493595,46.513911 75.891628,14.689323 73.76914,3.3703369 Z"
       style="display:inline;fill:url(#linearGradient61)"
       id="path1738" /></g><g
     id="layer8"
     style="display:none"><g
       id="layer4"
       style="display:inline"><path
         style="fill-opacity:1"
         d="m 41.355233,33.406874 4.388051,-4.734092 -0.711323,-8.021992 c 0,0 -0.02617,-0.762415 0.224963,-0.988548 0.623277,-0.561233 1.789337,-0.747014 2.498347,-0.29895 0.288546,0.182348 0.375366,0.767442 0.326519,0.970551 -0.04885,0.203108 0.500597,5.450448 0.500597,5.450448 l 9.120689,-9.374407 c 0,0 0.636909,-0.487137 0.991117,-0.425501 0.991747,0.172575 1.990263,1.076225 2.209475,2.058716 0.06013,0.269483 -0.30852,0.768727 -0.30852,0.768727 l -6.256463,6.237536 6.027941,0.603252 c 0,0 0.818603,0.130814 0.972917,0.453659 0.32304,0.675842 -0.03254,1.630467 -0.540115,2.181361 -0.22454,0.243701 -0.94223,0.316984 -0.94223,0.316984 l -7.853776,-0.874412 -4.073081,4.114168 8.736035,3.342113 c 0,0 0.373111,0.317235 0.35737,0.529626 -0.07532,1.016304 -1.105944,1.909772 -2.064947,2.254532 -0.53827,0.193507 -1.843404,-0.250671 -1.699429,-0.23782 0.143976,0.01286 -7.832229,-3.386039 -7.832229,-3.386039 l -2.291515,2.31628 z"
         id="path16" /><path
         style="fill-opacity:1;fill-rule:evenodd"
         d="m 24.081217,46.026138 -8.340719,0.223842 c 0,0 -0.612443,0.152825 -0.769868,0.394394 -0.42874,0.657901 -0.547673,1.683204 -0.135954,2.351889 0.149452,0.242729 0.784525,0.340294 0.784525,0.340294 l 6.082932,0.190572 -7.364681,8.876961 c 0,0 -0.174074,0.639424 -0.03996,0.9129 0.441613,0.900506 1.462023,1.612393 2.457288,1.736414 0.248975,0.03102 0.702517,-0.270239 0.702517,-0.270239 L 35.656911,40.038493 38.625415,36.483461 16.071004,15.973843 c 0,0 -0.471434,-0.259089 -0.719754,-0.222016 -1.086543,0.162219 -2.351302,0.817069 -2.728255,1.848959 -0.08134,0.222667 0.192916,0.68451 0.192916,0.68451 l 7.667196,7.367217 -6.521723,0.296977 c 0,0 -0.468178,0.208243 -0.568889,0.421735 -0.389658,0.826019 -0.36977,1.978881 0.140532,2.736333 0.160972,0.238934 0.783303,0.365311 0.783303,0.365311 l 10.13362,-0.149516 7.926598,7.911658 c -2.667797,3.018527 -5.514021,5.877282 -8.295364,8.791127 z"
         id="path17" /></g><g
       id="layer5"
       style="display:inline;opacity:1;fill:url(#linearGradient62);fill-opacity:1"><path
         d="m 9.4030435,10.491866 c 0,0 -0.5895247,3.720419 -0.4595207,7.34987 0.359034,10.02351 3.7217522,15.557123 11.7213652,20.493908 -5.79793,3.960945 -8.965734,11.905119 -9.13691,12.342399 -1.474514,3.804929 -1.230774,7.967795 -1.199916,11.969812 l -0.0098,3.397725 4.325019,-0.02763 C 22.104168,65.97029 28.08516,62.735554 33.344763,58.261559 38.46039,53.910034 38.409005,44.7633 36.882332,36.326344 35.740473,30.016009 34.871492,22.883408 31.087772,18.232388 27.823308,14.219648 19.23099,10.364492 12.672117,10.449498 c -1.089691,0.01412 -3.2690735,0.04237 -3.2690735,0.04237 z"
         style="display:inline;opacity:1;fill:url(#linearGradient2);fill-opacity:1"
         id="path1741" /><path
         d="m 66.779902,11.133687 c -0.319419,-0.305243 -0.796877,-0.435322 -1.542541,-0.418062 -0.967768,0.0224 -2.36923,0.274145 -4.398698,0.645438 -14.223916,2.602302 -20.477828,8.798538 -18.028874,17.862476 l 0.406177,1.502234 1.168404,5.676139 1.210262,5.881295 3.194121,-0.289905 c 1.75678,-0.1593 4.26597,-0.83628 5.576403,-1.504818 8.370184,-4.270151 13.015089,-13.333929 13.027629,-25.422737 0.0022,-2.169234 -0.02027,-3.365745 -0.612883,-3.93206 z"
         style="display:inline;fill:url(#linearGradient3);fill-opacity:1"
         id="path1742" /></g><g
       id="layer7"
       mask="none"
       style="display:inline;fill:url(#linearGradient64);fill-opacity:1"><path
         style="fill:url(#linearGradient4);fill-opacity:1;fill-rule:evenodd;stroke:none;stroke-width:0.508;stroke-linecap:square;stroke-dasharray:none;stroke-opacity:1"
         d="M 41.334843,35.532493 69.628212,7.1286028 41.555886,15.472936 37.963953,29.067016 v 0 z"
         id="path46" /><path
         style="display:inline;fill:url(#linearGradient5);fill-opacity:1;fill-rule:evenodd;stroke:none;stroke-width:0.508;stroke-linecap:square;stroke-dasharray:none;stroke-opacity:1"
         d="M 10.081367,66.583911 35.089409,37.199461 20.566103,38.320379 C 10.891811,44.342897 6.5056404,53.273883 10.081367,66.583911 Z"
         id="path34"
         mask="none" /><path
         style="fill:url(#linearGradient6);fill-opacity:1;fill-rule:evenodd;stroke:none;stroke-width:0.508;stroke-linecap:square;stroke-dasharray:none;stroke-opacity:1"
         d="M 6.0755052,7.0082631 8.5704983,28.379365 25.885184,27.094243 28.940248,11.71448 Z"
         id="path45" /></g></g><g
     id="layer9"
     style="display:none"><use
       x="0"
       y="0"
       xlink:href="#layer5"
       id="leaf_fg"
       style="display:inline" /><use
       x="0"
       y="0"
       xlink:href="#layer7"
       id="leaf_highlight"
       style="display:inline"
       mask="none"
       clip-path="url(#clipPath57)" /><use
       x="0"
       y="0"
       xlink:href="#layer4"
       id="veins"
       style="display:inline;fill:url(#swatch56);fill-opacity:1" /><use
       x="0"
       y="0"
       xlink:href="#layer4"
       id="veins_highlight"
       style="display:inline;fill:url(#linearGradient63);stroke:none;stroke-opacity:1"
       mask="none"
       clip-path="url(#clipPath60)" /></g><g
     id="g71"
     style="display:inline"><path
       d="m 60.086254,16.708024 c -0.400576,-0.369136 -0.897294,-0.637357 -1.392163,-0.72347 -0.354208,-0.06164 -0.991154,0.425297 -0.991154,0.425297 l -9.120373,9.374621 c 0,0 -0.549595,-5.247722 -0.500745,-5.45083 0.04885,-0.203108 -0.03805,-0.788135 -0.326595,-0.970483 -0.709009,-0.448064 -1.875279,-0.262026 -2.498555,0.299206 -0.251133,0.226133 -0.224793,0.988571 -0.224793,0.988571 l 0.711584,8.021732 -2.413806,2.603975 0.383956,1.868103 z"
       style="fill:url(#swatch62);fill-rule:evenodd;stroke:none;stroke-width:0.1016;stroke-linecap:square"
       id="path113" /><path
       d="m 66.017158,10.753865 c -0.792812,-0.172989 -2.596241,0.134773 -5.178495,0.607198 -14.223902,2.6023 -20.477825,8.798547 -18.028874,17.862476 l 0.406177,1.502234 0.113688,0.55087 2.413806,-2.603975 -0.711584,-8.021732 c 0,0 -0.02634,-0.762438 0.224793,-0.988571 0.623276,-0.561232 1.789546,-0.74727 2.498555,-0.299206 0.288546,0.182348 0.375442,0.767375 0.326595,0.970483 -0.04885,0.203108 0.500745,5.45083 0.500745,5.45083 l 9.120373,-9.374621 c 0,0 0.636946,-0.486933 0.991154,-0.425297 0.494869,0.08611 0.991587,0.354334 1.392163,0.72347 z"
       style="fill:url(#swatch64);fill-rule:evenodd;stroke:none;stroke-width:0.1016;stroke-linecap:square"
       id="path111" /><path
       d="m 66.017158,10.753865 -5.930904,5.954159 c 0.402202,0.370634 0.707693,0.843079 0.817521,1.335319 0.06013,0.269483 -0.308508,0.768428 -0.308508,0.768428 l -6.256466,6.237346 6.028056,0.60358 c 0,0 0.818237,0.130875 0.972551,0.453719 0.323039,0.675842 -0.03244,1.630369 -0.540019,2.181263 -0.22454,0.2437 -0.942061,0.316776 -0.942061,0.316776 l -7.853785,-0.874365 -4.073136,4.114477 8.735901,3.341915 c 0,0 0.373342,0.317293 0.357601,0.529684 -0.07532,1.016303 -1.105988,1.909883 -2.06499,2.254642 -0.53827,0.193507 -1.843613,-0.251079 -1.699638,-0.238228 0.143976,0.01286 -7.83208,-3.38584 -7.83208,-3.38584 l -1.213363,1.226282 0.170532,0.82889 1.210262,5.881295 3.194121,-0.289905 c 1.756778,-0.1593 4.265972,-0.83628 5.576403,-1.504818 8.370176,-4.270147 13.015089,-13.333941 13.027629,-25.422737 0.0022,-2.169232 -0.02027,-3.365746 -0.612883,-3.93206 -0.180359,-0.172355 -0.461778,-0.314152 -0.762744,-0.379822 z"
       style="fill:url(#swatch62);fill-rule:evenodd;stroke:none;stroke-width:0.1016;stroke-linecap:square"
       id="path110" /><path
       d="m 15.188737,60.373575 -4.870504,5.672005 4.324801,-0.02739 c 7.460879,-0.04766 13.442103,-3.282642 18.7017,-7.756633 4.736055,-4.028647 5.024222,-12.163337 3.832324,-20.043737 l -1.52032,1.82056 -18.199406,20.744987 c 0,0 -0.453825,0.301288 -0.702799,0.270268 -0.549421,-0.06846 -1.102651,-0.320468 -1.565796,-0.680062 z"
       style="fill:url(#swatch62);fill-rule:evenodd;stroke:none;stroke-width:0.1016;stroke-linecap:square"
       id="path106" /><path
       d="m 32.251652,37.358722 -11.618803,0.956251 c 0.01106,0.0068 0.02096,0.01384 0.03204,0.02067 -5.797924,3.960941 -8.965734,11.905119 -9.13691,12.342399 -1.474512,3.804925 -1.230784,7.967799 -1.199926,11.969812 l -0.0098,3.397725 4.870504,-5.672005 c -0.375834,-0.291804 -0.693592,-0.653388 -0.891419,-1.056783 -0.134114,-0.273476 0.04031,-0.912606 0.04031,-0.912606 l 7.364408,-8.876977 -6.082833,-0.190686 c 0,0 -0.634996,-0.0973 -0.784448,-0.340031 -0.411718,-0.668684 -0.29283,-1.694411 0.135909,-2.352311 0.157425,-0.241569 0.769979,-0.394291 0.769979,-0.394291 l 8.340576,-0.223759 c 2.723334,-2.853073 5.551073,-5.71827 8.170413,-8.667408 z"
       style="fill:url(#swatch64);fill-rule:evenodd;stroke:none;stroke-width:0.1016;stroke-linecap:square"
       id="path105" /><path
       d="m 32.251652,37.358722 c -2.61934,2.949138 -5.447101,5.814336 -8.170435,8.667409 l -8.340576,0.223759 c 0,0 -0.612554,0.152722 -0.769979,0.394291 -0.428739,0.6579 -0.547627,1.683627 -0.135909,2.352311 0.149452,0.242729 0.784448,0.340031 0.784448,0.340031 l 6.082833,0.190686 -7.364408,8.876977 c 0,0 -0.174422,0.63913 -0.04031,0.912606 0.197827,0.403395 0.515585,0.764979 0.891419,1.056783 L 35.089331,37.199279 Z"
       style="fill:url(#swatch62);fill-rule:evenodd;stroke:none;stroke-width:0.1016;stroke-linecap:square"
       id="path104" /><path
       d="m 13.152685,28.039115 -2.116666,0.157096 c 1.824428,4.103378 4.906994,7.218907 9.59683,10.118762 l 11.618803,-0.956251 c 0.05579,-0.06281 -0.05564,0.06295 0,0 l -7.801465,-8.035448 -10.133748,0.149345 c 0,0 -0.622443,-0.125902 -0.783415,-0.364835 -0.206786,-0.306937 -0.329229,-0.679934 -0.380339,-1.068669 z"
       style="fill:url(#swatch62);fill-rule:evenodd;stroke:none;stroke-width:0.1016;stroke-linecap:square"
       id="path103" /><path
       d="M 26.254728,25.234118 16.070853,15.973702 c 0,0 -0.471532,-0.258765 -0.719852,-0.221692 -1.086542,0.162219 -2.351046,0.817094 -2.727999,1.848983 -0.08134,0.222666 0.192753,0.684196 0.192753,0.684196 l 7.667232,7.367508 -6.521565,0.296623 c 0,0 -0.468247,0.208188 -0.568958,0.42168 -0.231759,0.491296 -0.314796,1.097539 -0.239779,1.668115 L 25.885241,27.09447 Z"
       style="fill:url(#swatch62);fill-rule:evenodd;stroke:none;stroke-width:0.1016;stroke-linecap:square"
       id="path102" /><path
       d="M 28.167273,15.606799 C 24.068536,12.69402 17.762961,10.383511 12.672095,10.449491 c -1.08969,0.01412 -3.2690515,0.04237 -3.2690515,0.04237 0,0 -0.5894074,3.720491 -0.4594035,7.349939 0.1477118,4.123816 0.8141164,7.479427 2.092379,10.354406 l 2.116666,-0.157096 c -0.07502,-0.570576 0.008,-1.176819 0.239779,-1.668115 0.100711,-0.213492 0.568958,-0.42168 0.568958,-0.42168 l 6.521565,-0.296623 -7.667232,-7.367508 c 0,0 -0.274093,-0.46153 -0.192753,-0.684196 0.376953,-1.031889 1.641457,-1.686764 2.727999,-1.848983 0.24832,-0.03707 0.719852,0.221692 0.719852,0.221692 l 10.183875,9.260416 z"
       style="fill:url(#swatch64);fill-rule:evenodd;stroke:none;stroke-width:0.1016;stroke-linecap:square"
       id="path100" /><path
       d="m 28.167273,15.606799 -1.912545,9.627319 10.327018,9.390641 c -1.020109,-5.863777 -2.042898,-12.150462 -5.493722,-16.39228 -0.730648,-0.898128 -1.738842,-1.785752 -2.920751,-2.62568 z"
       style="fill:url(#swatch62);fill-rule:evenodd;stroke:none;stroke-width:0.1016;stroke-linecap:square"
       id="path99" /></g></svg>
